<svg width="264" height="48" viewBox="0 0 264 48" fill="none" xmlns="http://www.w3.org/2000/svg">
<path d="M39.0418 8.576C40.6018 7.928 42.1018 7.604 43.5418 7.604C44.7418 7.604 45.9778 8.048 47.2498 8.936C47.9458 9.416 48.7258 10.352 49.5898 11.744C50.1658 12.704 50.8978 14.444 51.7858 16.964L56.1778 29.42C57.1858 32.204 58.2058 34.412 59.2378 36.044C60.2938 37.7 61.2538 38.936 62.1178 39.752C62.9818 40.592 63.8818 41.18 64.8178 41.516C65.7538 41.852 66.5218 42.02 67.1218 42.02C67.7458 42.02 68.2978 41.972 68.7778 41.876L68.8138 42.236C67.6618 42.62 66.5338 42.812 65.4298 42.812C64.3258 42.812 63.2218 42.524 62.1178 41.948C61.0138 41.396 59.9818 40.616 59.0218 39.608C56.9578 37.52 55.2058 34.34 53.7658 30.068L52.3618 25.964H42.4978L40.0138 32.372C39.8938 32.66 39.8338 32.948 39.8338 33.236C39.8338 33.524 39.9538 33.836 40.1938 34.172C40.4578 34.484 40.8538 34.64 41.3818 34.64H41.6698V35H34.4338V34.64H34.7578C35.3338 34.64 35.8978 34.472 36.4498 34.136C37.0018 33.776 37.4578 33.248 37.8178 32.552L46.7458 11.168C45.4498 9.32 43.8418 8.396 41.9218 8.396C41.0578 8.396 40.1338 8.576 39.1498 8.936L39.0418 8.576ZM42.8938 24.884H52.0018L49.1578 16.496C48.6058 14.888 48.1018 13.628 47.6458 12.716L42.8938 24.884ZM92.7867 34.64H93.3627V35H85.5507V34.676H86.0907C86.4987 34.676 86.8467 34.52 87.1347 34.208C87.4227 33.896 87.5427 33.536 87.4947 33.128L85.8747 15.02L78.3147 31.832C77.6427 33.296 77.2347 34.52 77.0907 35.504H76.7307L67.5147 15.524L65.9667 33.128C65.9187 33.512 66.0387 33.872 66.3267 34.208C66.6147 34.52 66.9627 34.676 67.3707 34.676H67.9107V35H60.9267V34.64H61.5027C62.1747 34.64 62.7507 34.436 63.2307 34.028C63.7347 33.62 64.0347 33.068 64.1307 32.372L66.8307 9.296H67.1907L77.2347 31.004L87.0627 9.296H87.3867L90.1587 32.372C90.2547 33.068 90.5547 33.62 91.0587 34.028C91.5627 34.436 92.1387 34.64 92.7867 34.64ZM103.467 10.916H101.163V32.372C101.163 32.996 101.379 33.536 101.811 33.992C102.267 34.424 102.819 34.64 103.467 34.64H103.899L103.935 35H96.0506V34.64H96.5186C97.1426 34.64 97.6706 34.424 98.1026 33.992C98.5586 33.56 98.7986 33.032 98.8226 32.408V12.428C98.7986 11.804 98.5586 11.276 98.1026 10.844C97.6706 10.388 97.1426 10.16 96.5186 10.16H96.0506V9.8H105.771C107.955 9.8 109.671 10.412 110.919 11.636C112.167 12.836 112.791 14.408 112.791 16.352C112.791 18.272 112.191 19.94 110.991 21.356C109.815 22.748 108.375 23.444 106.671 23.444C107.031 23.612 107.451 23.948 107.931 24.452C108.435 24.932 108.879 25.436 109.263 25.964C111.327 28.916 112.671 30.74 113.295 31.436C113.919 32.108 114.363 32.576 114.627 32.84C114.891 33.08 115.179 33.32 115.491 33.56C115.803 33.8 116.115 33.992 116.427 34.136C117.123 34.472 117.867 34.64 118.659 34.64V35H116.679C115.647 35 114.687 34.82 113.799 34.46C112.911 34.076 112.239 33.692 111.783 33.308C111.351 32.9 110.967 32.516 110.631 32.156C110.319 31.772 109.431 30.524 107.967 28.412C106.503 26.3 105.651 25.1 105.411 24.812C105.171 24.5 104.919 24.2 104.655 23.912C103.887 23.096 103.119 22.688 102.351 22.688V22.328C102.543 22.352 102.795 22.364 103.107 22.364C103.419 22.364 103.803 22.352 104.259 22.328C107.235 22.256 109.107 21.008 109.875 18.584C110.019 18.104 110.091 17.66 110.091 17.252C110.091 16.82 110.091 16.544 110.091 16.424C110.043 14.816 109.623 13.52 108.831 12.536C108.039 11.552 106.971 11.024 105.627 10.952C105.051 10.928 104.331 10.916 103.467 10.916ZM131.538 25.424C130.29 27.056 129.666 28.82 129.666 30.716C129.666 32.972 130.614 34.724 132.51 35.972C133.614 36.716 134.862 37.088 136.254 37.088C137.67 37.088 138.894 36.812 139.926 36.26C141.87 35.252 142.962 33.56 143.202 31.184C143.226 31.016 143.238 30.848 143.238 30.68C143.238 29.792 142.986 28.832 142.482 27.8C142.002 26.768 141.21 25.82 140.106 24.956L133.626 19.844C132.21 18.74 131.502 17.312 131.502 15.56C131.502 13.808 132.066 12.332 133.194 11.132C134.322 9.908 135.846 9.296 137.766 9.296C138.726 9.296 139.77 9.416 140.898 9.656H142.338L142.41 14.084H142.05C142.026 12.932 141.606 12.032 140.79 11.384C139.998 10.712 138.99 10.376 137.766 10.376C136.566 10.376 135.558 10.784 134.742 11.6C133.926 12.392 133.518 13.424 133.518 14.696C133.518 15.944 134.046 16.988 135.102 17.828L141.762 23.084C144.402 25.172 145.722 27.692 145.722 30.644C145.722 32.852 144.846 34.748 143.094 36.332C141.582 37.7 139.566 38.384 137.046 38.384C135.51 38.384 134.142 38.096 132.942 37.52C130.686 36.464 129.33 34.664 128.874 32.12C128.802 31.736 128.766 31.256 128.766 30.68C128.766 30.08 128.934 29.276 129.27 28.268C129.606 27.236 130.254 26.204 131.214 25.172L131.538 25.424ZM172.788 34.64H173.076V35H164.976V34.64H165.3C165.804 34.64 166.176 34.484 166.416 34.172C166.68 33.836 166.812 33.524 166.812 33.236C166.812 32.948 166.764 32.66 166.668 32.372L164.364 26.252H154.644L152.232 32.408C152.136 32.696 152.088 32.984 152.088 33.272C152.088 33.536 152.208 33.836 152.448 34.172C152.712 34.484 153.096 34.64 153.6 34.64H153.924V35H146.688V34.64H147.012C147.612 34.64 148.2 34.448 148.776 34.064C149.352 33.68 149.82 33.116 150.18 32.372L158.316 13.004C159.204 11.06 159.648 9.824 159.648 9.296H159.972L169.62 32.372C169.956 33.116 170.412 33.68 170.988 34.064C171.564 34.448 172.164 34.64 172.788 34.64ZM155.076 25.172H163.932L159.612 13.616L155.076 25.172ZM205.041 34.64H205.617V35H197.805V34.676H198.345C198.753 34.676 199.101 34.52 199.389 34.208C199.677 33.896 199.797 33.536 199.749 33.128L198.129 15.02L190.569 31.832C189.897 33.296 189.489 34.52 189.345 35.504H188.985L179.769 15.524L178.221 33.128C178.173 33.512 178.293 33.872 178.581 34.208C178.869 34.52 179.217 34.676 179.625 34.676H180.165V35H173.181V34.64H173.757C174.429 34.64 175.005 34.436 175.485 34.028C175.989 33.62 176.289 33.068 176.385 32.372L179.085 9.296H179.445L189.489 31.004L199.317 9.296H199.641L202.413 32.372C202.509 33.068 202.809 33.62 203.313 34.028C203.817 34.436 204.393 34.64 205.041 34.64ZM229.669 10.16H229.165C228.445 10.16 227.761 10.364 227.113 10.772C226.489 11.156 225.961 11.648 225.529 12.248L218.437 23.768V32.372C218.437 32.996 218.653 33.536 219.085 33.992C219.541 34.424 220.093 34.64 220.741 34.64H221.173V35H213.325V34.64H213.793C214.417 34.64 214.945 34.424 215.377 33.992C215.833 33.56 216.073 33.032 216.097 32.408V23.732L209.221 12.248C208.861 11.672 208.345 11.18 207.673 10.772C207.025 10.364 206.341 10.16 205.621 10.16H205.117V9.8H213.973V10.16H213.505C212.977 10.16 212.569 10.4 212.281 10.88C212.137 11.144 212.065 11.408 212.065 11.672C212.065 11.912 212.125 12.152 212.245 12.392L217.645 22.472L223.405 12.356C223.525 12.116 223.585 11.876 223.585 11.636C223.585 11.396 223.501 11.144 223.333 10.88C223.045 10.4 222.637 10.16 222.109 10.16H221.677V9.8H229.669V10.16Z" fill="white"/>
</svg>
